<?xml version="1.0" standalone="no"?>
<!DOCTYPE svg PUBLIC "-//W3C//DTD SVG 20010904//EN"
 "http://www.w3.org/TR/2001/REC-SVG-20010904/DTD/svg10.dtd">
<svg version="1.0" xmlns="http://www.w3.org/2000/svg"
 width="362" height="79" viewBox="0 0 362 79"
 preserveAspectRatio="xMidYMid meet">

<g transform="translate(0.000000,79.000000) scale(0.100000,-0.100000)"
fill="currentColor" stroke="none">
<path d="M230 777 c-214 -60 -288 -325 -145 -513 14 -18 54 -47 91 -65 55 -27
76 -32 137 -32 95 -1 162 28 222 96 l45 49 -42 27 -43 27 -20 -25 c-32 -41
-57 -59 -102 -72 -126 -35 -238 50 -250 190 -15 166 138 277 281 204 16 -8 43
-31 61 -50 l32 -35 41 30 41 29 -24 32 c-28 39 -77 77 -125 97 -49 21 -146 26
-200 11z"/>
<path d="M2028 713 l-38 -4 0 -55 0 -54 -35 0 c-35 0 -35 0 -35 -45 0 -45 0
-45 34 -45 l34 0 4 -139 c3 -130 5 -141 26 -164 27 -29 78 -41 133 -32 38 7
39 8 39 49 l0 42 -35 -4 c-64 -8 -79 27 -68 164 l6 84 48 0 c47 0 49 1 49 29
0 52 -8 61 -56 61 l-43 0 -3 57 c-3 61 -4 61 -60 56z"/>
<path d="M776 598 c-55 -15 -121 -82 -136 -138 -14 -53 -8 -136 13 -177 23
-43 75 -91 115 -104 59 -19 154 -7 201 25 150 105 119 340 -52 391 -57 17 -85
17 -141 3z m153 -123 c32 -35 33 -40 29 -98 -4 -52 -9 -64 -36 -88 -37 -34
-102 -40 -140 -13 -50 35 -66 116 -36 180 36 75 123 83 183 19z"/>
<path d="M2446 595 c-21 -7 -43 -18 -49 -24 -17 -17 -27 -13 -27 9 0 17 -7 20
-43 20 l-44 0 -6 -122 c-4 -66 -7 -161 -7 -210 l0 -88 50 0 50 0 1 93 c1 143
11 196 43 224 36 30 80 30 111 -2 24 -23 25 -28 25 -170 l0 -145 54 0 54 0 1
124 c1 200 -18 259 -96 292 -40 17 -67 17 -117 -1z"/>
<path d="M2881 598 c-30 -7 -56 -23 -86 -53 -55 -55 -75 -128 -57 -212 23
-109 95 -165 212 -165 79 0 128 19 166 65 l26 31 -40 20 -40 19 -32 -26 c-48
-41 -111 -38 -156 7 -19 19 -34 43 -34 55 0 20 4 21 156 21 l156 0 -4 59 c-9
132 -127 211 -267 179z m142 -109 c48 -53 40 -59 -78 -59 -68 0 -105 4 -105
11 0 21 22 51 53 70 43 26 93 18 130 -22z"/>
<path d="M1142 438 c3 -115 8 -172 18 -193 37 -75 150 -100 224 -50 44 30 46
30 46 5 0 -17 7 -20 50 -20 l50 0 0 211 0 210 -52 -3 -53 -3 -5 -148 c-5 -141
-6 -150 -29 -168 -30 -24 -103 -26 -122 -3 -10 12 -15 61 -19 168 l-5 151 -54
3 -53 3 4 -163z"/>
<path d="M1630 390 l0 -210 50 0 50 0 0 121 c0 69 5 130 11 142 18 36 52 57
92 57 l37 0 0 50 0 50 -34 0 c-19 0 -49 -11 -70 -25 l-36 -24 0 24 c0 23 -3
25 -50 25 l-50 0 0 -210z"/>
<path d="M3186 576 c4 -11 12 -32 19 -46 31 -61 145 -351 145 -368 0 -28 -45
-72 -75 -72 -23 0 -25 -4 -25 -40 l0 -40 51 0 c72 0 104 34 154 165 21 55 66
172 101 260 l62 160 -45 3 c-25 2 -49 0 -54 -5 -4 -4 -28 -65 -52 -134 -25
-70 -49 -134 -54 -144 -8 -14 -22 13 -69 131 l-59 149 -53 1 c-49 1 -52 0 -46
-20z"/>
</g>
</svg>
