<svg xmlns="http://www.w3.org/2000/svg" version="1.1" xmlns:xlink="http://www.w3.org/1999/xlink" xmlns:svgjs="http://svgjs.dev/svgjs" width="1024" height="1024"><svg version="1.1" xmlns="http://www.w3.org/2000/svg" style="display: block;" viewBox="0 0 2048 2048" width="1024" height="1024">
<path transform="translate(0,0)" fill="rgb(254,254,254)" d="M 0 0 L 2048 0 L 2048 2048 L 0 2048 L 0 0 z"></path>
<path transform="translate(0,0)" fill="rgb(0,0,0)" d="M 1053.54 602.423 C 1054.19 602.376 1054.84 602.318 1055.5 602.281 C 1145.31 597.312 1242.83 630.852 1310.05 690.5 A 419.487 419.487 0 0 1 1450.46 979.344 C 1457.05 1097.23 1421.99 1204.67 1342.79 1292.83 C 1274.94 1368.38 1179.71 1409.87 1079.25 1415.17 L 1078.25 1415.23 C 986.645 1420.39 884.184 1384.44 815.697 1323.41 C 731.584 1248.46 685.816 1147.29 679.576 1035.64 A 423.804 423.804 0 0 1 786.638 726.855 C 856.15 649.337 950.421 608.062 1053.54 602.423 z"></path>
<path transform="translate(0,0)" fill="rgb(254,254,254)" d="M 1053.6 765.419 C 1107.88 763.117 1148.45 774.075 1190.67 809.434 C 1241.31 851.846 1273 917.113 1278.52 982.547 C 1284.45 1052.8 1265.7 1125.29 1219.6 1179.59 C 1181.43 1224.56 1133.76 1250.07 1075.1 1254.85 C 1020.71 1256.26 969.933 1238.44 928.684 1202.62 C 877.74 1158.39 851.321 1094.65 846.982 1028.32 C 842.546 960.506 863.683 891.272 908.878 839.94 C 947.929 795.586 993.957 769.272 1053.6 765.419 z"></path>
<path transform="translate(0,0)" fill="rgb(0,0,0)" d="M 1058.48 776.416 C 1077.52 774.954 1110.23 776.633 1127.7 784.518 C 1133.25 787.025 1137.85 791.171 1139.86 797.042 C 1141.33 801.339 1141.23 806.102 1139.13 810.184 C 1135.94 816.417 1129.57 819.391 1122.92 820.409 C 1114.54 821.693 1104.41 818.696 1095.92 817.777 C 1073.15 815.31 1048.64 817.052 1026.61 823.484 C 981.043 836.789 947.444 870.008 925.26 911.018 C 900.046 957.631 892.83 1019.47 908.286 1070.43 C 930.67 1144.23 990.744 1201.7 1071.3 1199.65 C 1087.18 1199.25 1112.8 1191.41 1124.75 1192.71 C 1127.63 1193.02 1129.99 1194.23 1132.5 1195.59 C 1132.82 1195.77 1133.14 1195.95 1133.47 1196.13 C 1137.67 1200.08 1140.56 1203.97 1141.27 1209.86 C 1141.88 1214.95 1141.42 1220 1138.1 1224.1 C 1128.32 1236.19 1097.05 1239.68 1082.42 1240.86 C 1027.49 1245.29 977.355 1226.47 935.985 1191.1 C 891.392 1152.99 863.547 1091.12 859.251 1032.99 C 854.335 966.494 875.556 896.569 919.365 845.944 C 955.589 804.085 1003.51 780.334 1058.48 776.416 z"></path>
</svg><style>@media (prefers-color-scheme: light) { :root { filter: none; } }
@media (prefers-color-scheme: dark) { :root { filter: none; } }
</style></svg>